<mxfile host="app.diagrams.net" modified="2024-04-24T06:38:57.075Z" agent="Mozilla/5.0 (Macintosh; Intel Mac OS X 10_15_7) AppleWebKit/537.36 (KHTML, like Gecko) Chrome/124.0.0.0 Safari/537.36" version="24.2.8" etag="6tzpzZ013EP_QT-aj_kN" type="github">
  <diagram name="Page-1" id="VU__paxTKbn6wPTi1XVu">
    <mxGraphModel>
      <root>
        <mxCell id="0" />
        <mxCell id="1" parent="0" />
      </root>
    </mxGraphModel>
  </diagram>
</mxfile>
